<?xml version="1.0" standalone="no"?>
<!DOCTYPE svg PUBLIC "-//W3C//DTD SVG 20010904//EN"
 "http://www.w3.org/TR/2001/REC-SVG-20010904/DTD/svg10.dtd">
<svg version="1.0" xmlns="http://www.w3.org/2000/svg"
 width="512.000000pt" height="512.000000pt" viewBox="0 0 512.000000 512.000000"
 preserveAspectRatio="xMidYMid meet">
<metadata>
Created by potrace 1.11, written by Peter Selinger 2001-2013
</metadata>
<g transform="translate(0.000000,512.000000) scale(0.100000,-0.100000)"
fill="#000000" stroke="none">
<path d="M1461 5107 c-13 -6 -34 -25 -45 -40 l-21 -28 -1 -2464 c0 -1737 3
-2473 10 -2496 13 -40 67 -79 108 -79 43 0 83 25 102 64 15 31 16 238 16 2496
0 2280 -1 2465 -17 2497 -25 54 -98 78 -152 50z"/>
<path d="M2163 4876 c-17 -8 -40 -27 -50 -42 -17 -27 -18 -117 -18 -2275 l0
-2248 21 -28 c11 -15 39 -34 61 -42 36 -13 43 -12 79 5 24 12 46 32 56 54 17
33 18 162 18 2258 0 2406 3 2270 -52 2306 -36 23 -79 28 -115 12z"/>
<path d="M3574 4883 c-12 -2 -34 -18 -50 -34 l-29 -30 -3 -2246 c-2 -2502 -8
-2294 67 -2328 52 -23 111 -8 143 38 l23 32 0 2245 c0 2211 0 2245 -20 2274
-10 16 -34 35 -52 42 -33 14 -40 15 -79 7z"/>
<path d="M765 4176 c-17 -7 -40 -26 -50 -42 -18 -28 -19 -72 -19 -1553 -1
-983 3 -1538 9 -1564 18 -72 97 -107 165 -72 64 33 60 -78 60 1615 0 1693 4
1582 -60 1615 -35 18 -65 19 -105 1z"/>
<path d="M2871 3947 c-19 -7 -44 -25 -55 -40 l-21 -28 -3 -1307 c-2 -1470 -8
-1357 72 -1396 36 -17 43 -18 79 -5 22 8 50 27 61 42 l21 28 2 1300 c2 995 -1
1308 -10 1336 -21 62 -84 92 -146 70z"/>
<path d="M4275 3952 c-31 -11 -50 -25 -68 -52 -16 -23 -17 -121 -17 -1338 0
-1218 1 -1316 17 -1343 44 -74 153 -72 198 4 18 31 19 79 19 1337 0 1245 -1
1306 -18 1336 -10 17 -26 35 -35 41 -24 15 -73 22 -96 15z"/>
<path d="M64 3244 c-66 -33 -64 -7 -64 -679 0 -676 -2 -658 67 -690 67 -32
155 12 165 82 2 16 3 296 3 623 -1 569 -2 596 -20 624 -19 29 -69 56 -102 56
-10 0 -32 -7 -49 -16z"/>
<path d="M4955 3246 c-17 -7 -40 -26 -50 -42 -18 -28 -19 -55 -20 -624 0 -327
1 -607 3 -623 10 -70 98 -114 165 -82 69 32 67 14 67 690 0 674 3 647 -66 680
-39 18 -59 18 -99 1z"/>
</g>
</svg>
